<svg xmlns="http://www.w3.org/2000/svg" width="16" height="16" viewBox="0 0 16 16">
  <title>biology</title>
  <g fill="#44759A">
    <path d="M12,7a1,1,0,0,1-.707-.293l-2-2a1,1,0,0,1,1.414-1.414l2,2A1,1,0,0,1,12,7Z"></path>
    <path d="M6,13a1,1,0,0,1-.707-.293l-2-2A1,1,0,0,1,4.707,9.293l2,2A1,1,0,0,1,6,13Z"></path>
    <path d="M6,16a1,1,0,0,1,0-2,2,2,0,0,0,2-2,9.612,9.612,0,0,0-.929-3.629A11.339,11.339,0,0,1,6,4a4,4,0,0,1,4-4,1,1,0,0,1,0,2A2,2,0,0,0,8,4a9.612,9.612,0,0,0,.929,3.629A11.339,11.339,0,0,1,10,12,4,4,0,0,1,6,16Z" fill="#44759A"></path>
    <path d="M1,11a1,1,0,0,1-1-1A4,4,0,0,1,4,6,1,1,0,0,1,4,8a2,2,0,0,0-2,2A1,1,0,0,1,1,11Z" fill="#44759A"></path>
    <path d="M12,10a1,1,0,0,1,0-2,2,2,0,0,0,2-2,1,1,0,0,1,2,0A4,4,0,0,1,12,10Z" fill="#44759A"></path>
  </g>
</svg>