<?xml version="1.0" encoding="UTF-8"?>
<svg width="812px" height="810px" viewBox="0 0 812 810" version="1.1" xmlns="http://www.w3.org/2000/svg" xmlns:xlink="http://www.w3.org/1999/xlink">
    <title>minter_2</title>
    <defs>
        <radialGradient cx="50.0017107%" cy="50.0001853%" fx="50.0017107%" fy="50.0001853%" r="50.0400915%" gradientTransform="translate(0.500017,0.500002),scale(0.998308,1.000000),translate(-0.500017,-0.500002)" id="radialGradient-1">
            <stop stop-color="#C68EFF" offset="44%"></stop>
            <stop stop-color="#00D5C8" offset="89%"></stop>
        </radialGradient>
    </defs>
    <g id="Page-1" stroke="none" stroke-width="1" fill="none" fill-rule="evenodd">
        <g id="minter_2" transform="translate(0.427817, 0.301000)" fill="url(#radialGradient-1)" fill-rule="nonzero">
            <path d="M711.452183,229.105 L665.748183,205.054 C632.472183,187.54 605.302183,160.368 587.789183,127.089 L573.182183,99.352 C538.264183,32.983 473.486183,5.68434189e-14 408.735183,5.68434189e-14 C342.289183,5.68434189e-14 275.897183,34.758 241.894183,103.791 L228.739183,130.533 C210.635183,167.309 180.855183,197.091 144.082183,215.196 L103.784183,235.051 C-29.887817,300.882 -35.698817,489.364 93.696183,563.267 L136.119183,587.506 C164.984183,603.971 188.872183,627.887 205.362183,656.754 L239.016183,715.699 C274.740183,778.249 337.581183,809.399 400.396183,809.399 C463.210183,809.399 527.853183,777.309 563.148183,713.359 L595.456183,654.871 C612.403183,624.202 637.664183,598.94 668.331183,581.991 L714.732183,556.379 C844.262183,484.845 842.382183,298.031 711.422183,229.132 L711.452183,229.105 Z M622.814183,262.115 C622.814183,290.229 599.948183,313.096 571.837183,313.096 C543.725183,313.096 520.859183,290.229 520.859183,262.115 C520.859183,234.001 543.725183,211.134 571.837183,211.134 C599.948183,211.134 622.814183,234.001 622.814183,262.115 Z M693.942183,518.688 L647.536183,544.3 C609.713183,565.177 578.669183,596.223 557.794183,634.048 L525.486183,692.535 C499.984183,738.759 453.203183,766.329 400.396183,766.329 C347.589183,766.329 302.126183,739.399 276.381183,694.311 L242.728183,635.366 C222.445183,599.855 192.961183,570.369 157.451183,550.084 L115.028183,525.845 C68.328183,499.184 41.427183,451.162 43.095183,397.41 C44.736183,343.658 74.542183,297.385 122.776183,273.63 L163.074183,253.775 C208.133183,231.58 245.149183,194.562 267.343183,149.499 L280.497183,122.758 C293.114183,97.119 311.487183,76.996 335.107183,62.98 C357.112183,49.905 382.560183,43.018 408.708183,43.018 C462.672183,43.018 509.910183,71.562 535.036183,119.368 L549.643183,147.105 C553.544183,154.53 557.821183,161.66 562.475183,168.547 C514.941183,173.228 477.817183,213.34 477.817183,262.088 C477.817183,314.011 519.917183,356.114 571.837183,356.114 C623.756183,356.114 665.856183,314.011 665.856183,262.088 C665.856183,259.183 665.695183,256.331 665.453183,253.506 L691.382183,267.146 C738.652183,292.004 767.162183,338.735 767.702183,392.137 C768.242183,445.539 740.672183,492.835 693.912183,518.635 L693.942183,518.688 Z" id="Shape"></path>
        </g>
    </g>
</svg>