<svg width="32" height="50" viewBox="0 0 32 50" fill="none"
  xmlns="http://www.w3.org/2000/svg">
  <path fill-rule="evenodd" clip-rule="evenodd" d="M23.0266 3.50164C19.1248 -0.669816 12.8351 -0.669817 8.93332 3.50164C5.61685 7.04728 5.04779 12.6079 7.42966 16.8663C8.95979 19.6019 10.9033 22.0815 13.1612 24.1522L13.6225 24.5753L12.9867 25.1172C11.0123 26.7999 9.24947 28.7449 7.75286 30.8773L3.31412 26.5296C3.10845 26.3282 3.10845 26.0016 3.31412 25.8001L7.61763 21.5849C8.23463 20.9806 8.23463 20.0008 7.61763 19.3964C7.00063 18.7921 6.00027 18.7921 5.38327 19.3964L1.07975 23.6116C-0.359917 25.0217 -0.359919 27.308 1.07975 28.7181L6.07253 33.6084C3.97227 37.9311 4.77336 43.2443 8.23801 46.6864C12.5418 50.9623 19.4183 50.9623 23.7221 46.6864C27.1867 43.2443 27.9878 37.9312 25.8876 33.6085L30.8803 28.7181C32.32 27.308 32.32 25.0217 30.8803 23.6116L26.5768 19.3964C25.9598 18.7921 24.9595 18.7921 24.3425 19.3964C23.7255 20.0008 23.7255 20.9806 24.3425 21.5849L28.646 25.8001C28.8517 26.0016 28.8516 26.3282 28.646 26.5296L24.2072 30.8773C22.7106 28.7449 20.9478 26.7999 18.9734 25.1172L18.3375 24.5752L18.7987 24.1522C21.0566 22.0815 23.0002 19.6019 24.5303 16.8663C26.9122 12.6079 26.3431 7.04728 23.0266 3.50164ZM11.2632 5.5924C13.9126 2.75996 18.0474 2.75996 20.6967 5.5924C23.0539 8.11245 23.5237 12.2243 21.7591 15.3792C20.3821 17.8409 18.6413 20.0566 16.639 21.893L15.98 22.4974L15.321 21.893C13.3187 20.0566 11.5778 17.8409 10.2009 15.3792C8.4362 12.2243 8.90604 8.11245 11.2632 5.5924ZM10.4882 44.5135C8.2565 42.2963 7.53062 38.946 8.50115 35.9872L13.3733 40.7594C14.813 42.1695 17.1471 42.1695 18.5868 40.7594L23.4589 35.9872C24.4294 38.946 23.7036 42.2963 21.4719 44.5135C18.4056 47.5599 13.5545 47.5599 10.4882 44.5135ZM16.3524 38.5709L21.9306 33.1072C20.5137 30.9977 18.814 29.084 16.8992 27.452L16.0188 26.7017L15.98 26.7373L15.9412 26.7018L15.0609 27.452C13.1461 29.084 11.4464 30.9976 10.0295 33.1072L15.6077 38.5709C15.8133 38.7723 16.1468 38.7723 16.3524 38.5709Z" fill="url(#paint0_linear_4_253)"/>
  <defs>
    <linearGradient id="paint0_linear_4_253" x1="4.56042" y1="4.45396" x2="46.4396" y2="59.546" gradientUnits="userSpaceOnUse">
      <stop stop-color="#00C7BA"/>
      <stop offset="0.754822" stop-color="#B698FF"/>
    </linearGradient>
  </defs>
</svg>
